<svg width="104" height="103" viewBox="0 0 104 103" fill="none" xmlns="http://www.w3.org/2000/svg">
<path d="M44.8309 0.99995L3.75424 28.8173" stroke="#FEFEFE"/>
<line y1="-0.5" x2="41.3134" y2="-0.5" transform="matrix(0.630828 0.775923 -0.735671 0.67734 3.4201 28.8174)" stroke="#FEFEFE"/>
<line y1="-0.5" x2="40.0226" y2="-0.5" transform="matrix(0.777529 -0.628848 0.581173 0.81378 34.5388 57.4006)" stroke="#FEFEFE"/>
<line y1="-0.5" x2="46.304" y2="-0.5" transform="matrix(0.698935 0.715185 -0.670418 0.741984 70.6365 34.8817)" stroke="#FEFEFE"/>
<line y1="-0.5" x2="40.9979" y2="-0.5" transform="matrix(-0.789393 0.613888 -0.566079 -0.824351 103 68.5564)" stroke="#FEFEFE"/>
<path d="M43.6048 8.73689L1.87913 35.438" stroke="#FEFEFE"/>
<line y1="-0.5" x2="41.3131" y2="-0.5" transform="matrix(0.612158 0.792684 -0.751554 0.657286 1.5451 35.4291)" stroke="#FEFEFE"/>
<line y1="-0.5" x2="40.023" y2="-0.5" transform="matrix(0.79224 -0.607678 0.56162 0.829195 31.9734 64.842)" stroke="#FEFEFE"/>
<line y1="-0.5" x2="46.3041" y2="-0.5" transform="matrix(0.681685 0.733797 -0.687867 0.723673 68.5956 43.3036)" stroke="#FEFEFE"/>
<line y1="-0.5" x2="40.9984" y2="-0.5" transform="matrix(-0.803743 0.592403 -0.54628 -0.839357 100.147 77.8401)" stroke="#FEFEFE"/>
</svg>
