<svg width="38" height="38" viewBox="0 0 38 38" fill="none" xmlns="http://www.w3.org/2000/svg">
<path d="M19 0C13.8439 0 13.1955 0.02375 11.1696 0.114C9.14375 0.209 7.76387 0.52725 6.555 0.9975C5.28697 1.47445 4.13842 2.22259 3.18963 3.18963C2.22318 4.1389 1.47513 5.28732 0.9975 6.555C0.52725 7.7615 0.206625 9.14375 0.114 11.1625C0.02375 13.1931 0 13.8391 0 19.0024C0 24.1609 0.02375 24.8069 0.114 26.8328C0.209 28.8563 0.52725 30.2361 0.9975 31.445C1.48437 32.6942 2.13275 33.7535 3.18963 34.8104C4.24413 35.8672 5.30337 36.518 6.55262 37.0025C7.76387 37.4727 9.14138 37.7934 11.1649 37.886C13.1931 37.9762 13.8391 38 19 38C24.1609 38 24.8045 37.9762 26.8328 37.886C28.8539 37.791 30.2385 37.4727 31.4474 37.0025C32.7146 36.5253 33.8623 35.7772 34.8104 34.8104C35.8672 33.7535 36.5156 32.6942 37.0025 31.445C37.4704 30.2361 37.791 28.8563 37.886 26.8328C37.9762 24.8069 38 24.1609 38 19C38 13.8391 37.9762 13.1931 37.886 11.1649C37.791 9.14375 37.4704 7.7615 37.0025 6.555C36.5249 5.28729 35.7769 4.13885 34.8104 3.18963C33.8619 2.22223 32.7132 1.47403 31.445 0.9975C30.2337 0.52725 28.8515 0.206625 26.8304 0.114C24.8021 0.02375 24.1585 0 18.9952 0H19.0024H19ZM17.2971 3.42475H19.0024C24.0754 3.42475 24.6762 3.44138 26.6784 3.534C28.5309 3.61713 29.5379 3.92825 30.2076 4.18713C31.0935 4.5315 31.7276 4.94475 32.3926 5.60975C33.0576 6.27475 33.4685 6.9065 33.8129 7.79475C34.0741 8.46213 34.3829 9.46913 34.466 11.3216C34.5586 13.3238 34.5776 13.9246 34.5776 18.9952C34.5776 24.0659 34.5586 24.6691 34.466 26.6712C34.3829 28.5237 34.0718 29.5284 33.8129 30.1981C33.5083 31.0231 33.0221 31.769 32.3902 32.3808C31.7252 33.0458 31.0935 33.4566 30.2053 33.801C29.5403 34.0623 28.5332 34.371 26.6784 34.4565C24.6762 34.5468 24.0754 34.5681 19.0024 34.5681C13.9294 34.5681 13.3261 34.5468 11.324 34.4565C9.4715 34.371 8.46687 34.0623 7.79712 33.801C6.97181 33.4968 6.22517 33.0115 5.61212 32.3808C4.97978 31.7681 4.49284 31.0214 4.18713 30.1958C3.92825 29.5284 3.61713 28.5214 3.534 26.6689C3.44375 24.6668 3.42475 24.0659 3.42475 18.9905C3.42475 13.9175 3.44375 13.319 3.534 11.3169C3.6195 9.46437 3.92825 8.45737 4.1895 7.78762C4.53388 6.90175 4.94712 6.26762 5.61212 5.60262C6.27712 4.93762 6.90887 4.52675 7.79712 4.18238C8.46687 3.92113 9.4715 3.61237 11.324 3.52687C13.0768 3.44612 13.756 3.42237 17.2971 3.42V3.42475ZM29.1436 6.57875C28.8442 6.57875 28.5477 6.63772 28.2711 6.75231C27.9945 6.86689 27.7431 7.03483 27.5314 7.24655C27.3197 7.45826 27.1518 7.70961 27.0372 7.98623C26.9226 8.26285 26.8636 8.55934 26.8636 8.85875C26.8636 9.15816 26.9226 9.45465 27.0372 9.73127C27.1518 10.0079 27.3197 10.2592 27.5314 10.471C27.7431 10.6827 27.9945 10.8506 28.2711 10.9652C28.5477 11.0798 28.8442 11.1387 29.1436 11.1387C29.7483 11.1387 30.3282 10.8985 30.7558 10.471C31.1834 10.0434 31.4236 9.46344 31.4236 8.85875C31.4236 8.25406 31.1834 7.67413 30.7558 7.24655C30.3282 6.81896 29.7483 6.57875 29.1436 6.57875ZM19.0024 9.2435C17.7082 9.22331 16.4229 9.46078 15.2213 9.94208C14.0198 10.4234 12.926 11.1389 12.0036 12.047C11.0812 12.9551 10.3487 14.0376 9.84875 15.2315C9.34876 16.4254 9.09126 17.7068 9.09126 19.0012C9.09126 20.2956 9.34876 21.577 9.84875 22.7709C10.3487 23.9648 11.0812 25.0473 12.0036 25.9554C12.926 26.8635 14.0198 27.579 15.2213 28.0603C16.4229 28.5416 17.7082 28.7791 19.0024 28.7589C21.5639 28.7189 24.007 27.6733 25.8043 25.8477C27.6016 24.0221 28.609 21.563 28.609 19.0012C28.609 16.4393 27.6016 13.9802 25.8043 12.1547C24.007 10.3291 21.5639 9.28346 19.0024 9.2435ZM19.0024 12.6659C20.6823 12.6659 22.2934 13.3332 23.4813 14.5211C24.6692 15.709 25.3365 17.3201 25.3365 19C25.3365 20.6799 24.6692 22.291 23.4813 23.4789C22.2934 24.6668 20.6823 25.3341 19.0024 25.3341C17.3225 25.3341 15.7114 24.6668 14.5235 23.4789C13.3356 22.291 12.6683 20.6799 12.6683 19C12.6683 17.3201 13.3356 15.709 14.5235 14.5211C15.7114 13.3332 17.3225 12.6659 19.0024 12.6659Z" fill="#CF3DC1"/>
</svg>
