<svg width="13" height="17" viewBox="0 0 13 17" fill="none" xmlns="http://www.w3.org/2000/svg">
<path d="M11.6071 0.991211H1.39286C0.623884 0.991211 0 1.71877 0 2.61553V14.5272C0 15.424 0.623884 16.1516 1.39286 16.1516H11.6071C12.3761 16.1516 13 15.424 13 14.5272V2.61553C13 1.71877 12.3761 0.991211 11.6071 0.991211ZM7.07455 12.8149C7.07455 14.2904 6.3317 14.9638 5.24933 14.9638C4.27143 14.9638 3.70558 14.375 3.4154 13.6609L4.41071 12.9604C4.60223 13.3564 4.77634 13.6914 5.1971 13.6914C5.59754 13.6914 5.8529 13.5087 5.8529 12.7946V7.95211H7.07455V12.8149V12.8149ZM9.96473 14.9638C8.83013 14.9638 8.09598 14.3343 7.73906 13.5087L8.73437 12.8386C8.99554 13.3361 9.33795 13.7049 9.93862 13.7049C10.4435 13.7049 10.7685 13.4105 10.7685 13.0011C10.7685 12.5138 10.4377 12.3412 9.87768 12.0535L9.57299 11.9012C8.69085 11.4647 8.10759 10.9131 8.10759 9.7524C8.10759 8.68306 8.80692 7.8709 9.89509 7.8709C10.6728 7.8709 11.2299 8.18561 11.6304 9.01131L10.6786 9.72195C10.4696 9.28541 10.2433 9.11283 9.89219 9.11283C9.53527 9.11283 9.30893 9.37678 9.30893 9.72195C9.30893 10.1483 9.53527 10.3209 10.0605 10.5883L10.3652 10.7405C11.404 11.2583 11.9873 11.7896 11.9873 12.9807C11.9873 14.2599 11.1225 14.9638 9.96473 14.9638V14.9638Z" fill="url(#paint0_linear_26_218)"/>
<defs>
<linearGradient id="paint0_linear_26_218" x1="6.5" y1="0.991211" x2="6.5" y2="16.1516" gradientUnits="userSpaceOnUse">
<stop stop-color="#693B93" stop-opacity="0.53"/>
<stop offset="1" stop-color="#693B93"/>
</linearGradient>
</defs>
</svg>
